<?xml version="1.0" encoding="UTF-8"?>
<svg version="1.1" xmlns="http://www.w3.org/2000/svg" width="377" height="86">
<path d="M0 0 C124.41 0 248.82 0 377 0 C377 28.38 377 56.76 377 86 C252.59 86 128.18 86 0 86 C0 57.62 0 29.24 0 0 Z " fill="#FCFCFC" transform="translate(0,0)"/>
<path d="M0 0 C11.54098556 -1.92796047 11.54098556 -1.92796047 17 0 C21.31948018 3.82658097 23.78221192 9.22918149 26.12475586 14.41772461 C26.91083698 16.1913344 26.91083698 16.1913344 29 17 C29.27714844 16.30519531 29.55429687 15.61039063 29.83984375 14.89453125 C30.22269531 13.93933594 30.60554688 12.98414063 31 12 C31.37253906 10.97261719 31.74507813 9.94523437 32.12890625 8.88671875 C33.76170596 5.24295045 35.09574024 2.76988357 38 0 C43.5202355 -1.51474829 49.39890449 -0.68044805 55 0 C52.43453993 4.89447222 49.69677791 9.55063621 46.5 14.0625 C45.91347656 14.89265625 45.32695312 15.7228125 44.72265625 16.578125 C43.61422027 18.13647036 42.4976483 19.68907715 41.37109375 21.234375 C40.89800781 21.92015625 40.42492187 22.6059375 39.9375 23.3125 C39.51339844 23.90675781 39.08929688 24.50101563 38.65234375 25.11328125 C37.67822487 27.93064304 38.7627284 29.3376051 40 32 C41.1009293 33.73846976 42.25223626 35.44565573 43.44140625 37.125 C44.10720703 38.07890625 44.77300781 39.0328125 45.45898438 40.015625 C46.86262585 42.00704949 48.26888308 43.99663283 49.67773438 45.984375 C50.34224609 46.93828125 51.00675781 47.8921875 51.69140625 48.875 C52.30185791 49.73867187 52.91230957 50.60234375 53.54125977 51.4921875 C55.03188329 54.05481258 55.60726073 56.08045278 56 59 C50.61770775 60.24366188 45.2234091 61.26343839 40 59 C34.28157742 53.48065815 30.58858289 46.01303101 27 39 C26.70754395 39.5347998 26.41508789 40.06959961 26.11376953 40.62060547 C24.78773736 43.04070623 23.45643889 45.4578699 22.125 47.875 C21.66480469 48.71675781 21.20460938 49.55851562 20.73046875 50.42578125 C20.28574219 51.23144531 19.84101563 52.03710938 19.3828125 52.8671875 C18.97434082 53.61081543 18.56586914 54.35444336 18.14501953 55.12060547 C17 57 17 57 15 59 C12.0906442 59.14517744 9.280054 59.18630796 6.375 59.125 C5.57320313 59.11597656 4.77140625 59.10695312 3.9453125 59.09765625 C1.96341477 59.07406223 -0.01832981 59.03819065 -2 59 C-1.63390625 58.42636719 -1.2678125 57.85273437 -0.890625 57.26171875 C0.29034465 55.40872114 1.46689756 53.55290593 2.640625 51.6953125 C4.45419478 48.83644362 6.30922962 46.00679872 8.171875 43.1796875 C9.28144 41.47408192 10.39081428 39.76835226 11.5 38.0625 C12.05268555 37.23387451 12.60537109 36.40524902 13.17480469 35.55151367 C13.68430664 34.76236572 14.19380859 33.97321777 14.71875 33.16015625 C15.18216797 32.45511963 15.64558594 31.75008301 16.12304688 31.02368164 C17.20783621 28.52039133 16.97643396 27.5082087 16 25 C14.87079621 23.13019622 13.67416019 21.30053851 12.4375 19.5 C11.36822266 17.92798828 11.36822266 17.92798828 10.27734375 16.32421875 C9.90464355 15.78071777 9.53194336 15.2372168 9.14794922 14.67724609 C7.2476332 11.90073162 5.37325479 9.10735608 3.5 6.3125 C2.49453125 4.82169922 2.49453125 4.82169922 1.46875 3.30078125 C0 1 0 1 0 0 Z " fill="#70349D" transform="translate(321,15)"/>
<path d="M0 0 C13.2 0 26.4 0 40 0 C40 3.96 40 7.92 40 12 C31.42 12 22.84 12 14 12 C14 15.63 14 19.26 14 23 C22.25 23 30.5 23 39 23 C39 26.96 39 30.92 39 35 C30.75 35 22.5 35 14 35 C14 38.96 14 42.92 14 47 C22.91 47 31.82 47 41 47 C41 50.96 41 54.92 41 59 C27.47 59 13.94 59 0 59 C0 39.53 0 20.06 0 0 Z " fill="#70359C" transform="translate(275,15)"/>
<path d="M0 0 C12.87 0 25.74 0 39 0 C39 3.96 39 7.92 39 12 C30.75 12 22.5 12 14 12 C14 15.96 14 19.92 14 24 C21.59 24 29.18 24 37 24 C37 27.96 37 31.92 37 36 C29.41 36 21.82 36 14 36 C14 43.59 14 51.18 14 59 C9.38 59 4.76 59 0 59 C0 39.53 0 20.06 0 0 Z " fill="#6F319E" transform="translate(183,15)"/>
<path d="M0 0 C12.87 0 25.74 0 39 0 C39 3.96 39 7.92 39 12 C30.75 12 22.5 12 14 12 C14 15.96 14 19.92 14 24 C21.59 24 29.18 24 37 24 C37 27.96 37 31.92 37 36 C29.41 36 21.82 36 14 36 C14 43.59 14 51.18 14 59 C9.38 59 4.76 59 0 59 C0 39.53 0 20.06 0 0 Z " fill="#0DF60E" transform="translate(9,15)"/>
<path d="M0 0 C15.51 0 31.02 0 47 0 C47 3.96 47 7.92 47 12 C41.72 12 36.44 12 31 12 C31 27.51 31 43.02 31 59 C26.05 59 21.1 59 16 59 C16 43.82 16 28.64 16 13 C10.72 13 5.44 13 0 13 C0 8.71 0 4.42 0 0 Z " fill="#10F910" transform="translate(78,15)"/>
<path d="M0 0 C4.68788787 1.71288211 7.25914806 3.83796557 10 8 C11.25577879 11.61541526 11.11375051 15.1548808 11.09765625 18.953125 C11.0962413 19.61334656 11.09482635 20.27356812 11.09336853 20.95379639 C11.08779245 23.05257794 11.07524447 25.15125095 11.0625 27.25 C11.0574819 28.67708179 11.05291954 30.10416525 11.04882812 31.53125 C11.03868377 35.02090832 11.01910401 38.51033332 11 42 C6.71 42 2.42 42 -2 42 C-2.05607422 39.25429687 -2.05607422 39.25429687 -2.11328125 36.453125 C-2.1789353 34.05206265 -2.24538283 31.6510219 -2.3125 29.25 C-2.33505859 28.0434375 -2.35761719 26.836875 -2.38085938 25.59375 C-2.41630859 24.43359375 -2.45175781 23.2734375 -2.48828125 22.078125 C-2.51446533 21.00981445 -2.54064941 19.94150391 -2.56762695 18.84082031 C-3.04990345 15.6721194 -3.74307413 14.25126775 -6 12 C-9 11.33333333 -9 11.33333333 -12 12 C-15.15310589 15.14520104 -15.40505898 17.72640619 -15.51171875 22.078125 C-15.54716797 23.23828125 -15.58261719 24.3984375 -15.61914062 25.59375 C-15.65297852 27.40359375 -15.65297852 27.40359375 -15.6875 29.25 C-15.72166016 30.47203125 -15.75582031 31.6940625 -15.79101562 32.953125 C-15.8734653 35.96842746 -15.93840971 38.98419936 -16 42 C-20.62 42 -25.24 42 -30 42 C-30 28.47 -30 14.94 -30 1 C-25.71 1 -21.42 1 -17 1 C-16.67 2.65 -16.34 4.3 -16 6 C-15.05125 5.195625 -14.1025 4.39125 -13.125 3.5625 C-8.90859651 -0.01227687 -5.52133625 -0.56655503 0 0 Z " fill="#030303" transform="translate(161,32)"/>
<path d="M0 0 C4.95 0 9.9 0 15 0 C15 15.18 15 30.36 15 46 C22.26 46 29.52 46 37 46 C37 50.29 37 54.58 37 59 C24.79 59 12.58 59 0 59 C0 39.53 0 20.06 0 0 Z " fill="#6F309E" transform="translate(231,15)"/>
<path d="M0 0 C4.62 0 9.24 0 14 0 C14 19.47 14 38.94 14 59 C9.38 59 4.76 59 0 59 C0 39.53 0 20.06 0 0 Z " fill="#01FE01" transform="translate(57,15)"/>
<path d="M0 0 C12.87 0 25.74 0 39 0 C39 3.96 39 7.92 39 12 C30.75 12 22.5 12 14 12 C14 15.63 14 19.26 14 23 C13.67 23 13.34 23 13 23 C12.67 19.37 12.34 15.74 12 12 C15.96007469 10.01996265 17.03192744 9.78092601 21.203125 10.0234375 C22.1828125 10.075 23.1625 10.1265625 24.171875 10.1796875 C25.69554687 10.27636719 25.69554687 10.27636719 27.25 10.375 C28.796875 10.46007812 28.796875 10.46007812 30.375 10.546875 C32.91739205 10.688119 35.45876238 10.83950746 38 11 C38 8.03 38 5.06 38 2 C26.12 2 14.24 2 2 2 C2 20.48 2 38.96 2 58 C5.63 58 9.26 58 13 58 C13 51.07 13 44.14 13 37 C13.33 37 13.66 37 14 37 C14 44.26 14 51.52 14 59 C9.38 59 4.76 59 0 59 C0 39.53 0 20.06 0 0 Z " fill="#6D4190" transform="translate(183,15)"/>
<path d="M0 0 C4.62 0 9.24 0 14 0 C14 19.47 14 38.94 14 59 C9.38 59 4.76 59 0 59 C0 39.53 0 20.06 0 0 Z M2 2 C2 20.48 2 38.96 2 58 C5.3 58 8.6 58 12 58 C12 39.52 12 21.04 12 2 C8.7 2 5.4 2 2 2 Z " fill="#20E822" transform="translate(57,15)"/>
<path d="M0 0 C4.95 0 9.9 0 15 0 C15 15.18 15 30.36 15 46 C22.26 46 29.52 46 37 46 C37 46.33 37 46.66 37 47 C29.41 47 21.82 47 14 47 C12.84589746 44.69179492 12.8789703 43.39215724 12.88647461 40.82568359 C12.88655014 39.96494232 12.88662567 39.10420105 12.88670349 38.21737671 C12.89186478 37.28712677 12.89702606 36.35687683 12.90234375 35.3984375 C12.9037587 34.44683746 12.90517365 33.49523743 12.90663147 32.51480103 C12.91223988 29.46816903 12.92479381 26.42160987 12.9375 23.375 C12.94251392 21.31250106 12.94707701 19.25000097 12.95117188 17.1875 C12.96221204 12.12497183 12.97948233 7.06249827 13 2 C9.37 2 5.74 2 2 2 C2 20.15 2 38.3 2 57 C2.66 57.33 3.32 57.66 4 58 C2.02 58.495 2.02 58.495 0 59 C0 39.53 0 20.06 0 0 Z " fill="#825AA4" transform="translate(231,15)"/>
<path d="M0 0 C0 20.13 0 40.26 0 61 C-0.33 61 -0.66 61 -1 61 C-1 41.53 -1 22.06 -1 2 C-5.62 2 -10.24 2 -15 2 C-15 21.47 -15 40.94 -15 61 C-15.66 61 -16.32 61 -17 61 C-17.33 41.2 -17.66 21.4 -18 1 C-12.6251615 -1.68741925 -6.00925213 0 0 0 Z " fill="#C4FEC4" transform="translate(72,13)"/>
<path d="M0 0 C1.32751785 0.00212242 1.32751785 0.00212242 2.68185425 0.00428772 C5.51449941 0.00989485 8.34706614 0.02244854 11.1796875 0.03515625 C13.09765511 0.04017033 15.01562396 0.0447334 16.93359375 0.04882812 C21.64065532 0.05986659 26.3476581 0.077136 31.0546875 0.09765625 C31.0546875 0.75765625 31.0546875 1.41765625 31.0546875 2.09765625 C18.1846875 2.09765625 5.3146875 2.09765625 -7.9453125 2.09765625 C-7.9453125 21.56765625 -7.9453125 41.03765625 -7.9453125 61.09765625 C-8.6053125 61.09765625 -9.2653125 61.09765625 -9.9453125 61.09765625 C-10.2753125 41.29765625 -10.6053125 21.49765625 -10.9453125 1.09765625 C-7.56138242 -0.59430879 -3.72053459 -0.02220924 0 0 Z " fill="#DAFFDA" transform="translate(16.9453125,12.90234375)"/>
<path d="M0 0 C16.5 0 33 0 50 0 C49.67 4.62 49.34 9.24 49 14 C43.39 14 37.78 14 32 14 C32 29.51 32 45.02 32 61 C26.72 61 21.44 61 16 61 C16 60.67 16 60.34 16 60 C20.95 60 25.9 60 31 60 C31 44.49 31 28.98 31 13 C36.28 13 41.56 13 47 13 C47 9.04 47 5.08 47 1 C31.49 1 15.98 1 0 1 C0 0.67 0 0.34 0 0 Z " fill="#CEFFCE" transform="translate(78,14)"/>
<path d="M0 0 C15.18 0 30.36 0 46 0 C46 3.63 46 7.26 46 11 C40.72 11 35.44 11 30 11 C30 10.67 30 10.34 30 10 C34.62 9.67 39.24 9.34 44 9 C44 6.36 44 3.72 44 1 C29.48 1 14.96 1 0 1 C0 0.67 0 0.34 0 0 Z " fill="#18EE19" transform="translate(79,16)"/>
<path d="M0 0 C5.61 0 11.22 0 17 0 C12.375 8.75 12.375 8.75 9 11 C10.75 5.25 10.75 5.25 13 3 C9.04 3 5.08 3 1 3 C0.34 4.65 -0.32 6.3 -1 8 C-1.99 7.67 -2.98 7.34 -4 7 C-2.68 4.69 -1.36 2.38 0 0 Z " fill="#6C428F" transform="translate(359,15)"/>
<path d="M0 0 C0.99 0 1.98 0 3 0 C2.67 4.62 2.34 9.24 2 14 C-3.94 14 -9.88 14 -16 14 C-16 13.67 -16 13.34 -16 13 C-10.72 13 -5.44 13 0 13 C0 8.71 0 4.42 0 0 Z " fill="#ADFEAF" transform="translate(125,14)"/>
<path d="M0 0 C0.51046875 0.31710938 1.0209375 0.63421875 1.546875 0.9609375 C4.80214659 2.33976273 7.72843132 2.4293573 11.25 2.625 C13.14492188 2.73714844 13.14492188 2.73714844 15.078125 2.8515625 C16.04234375 2.90054688 17.0065625 2.94953125 18 3 C18 3.33 18 3.66 18 4 C12.72 4 7.44 4 2 4 C1.34 2.68 0.68 1.36 0 0 Z " fill="#6B3C8E" transform="translate(359,70)"/>
<path d="M0 0 C0.66 0.33 1.32 0.66 2 1 C1.8125 3.375 1.8125 3.375 1 6 C-1.5625 7.3125 -1.5625 7.3125 -4 8 C-2.68 5.36 -1.36 2.72 0 0 Z " fill="#734499" transform="translate(336,47)"/>
<path d="M0 0 C0.99 0 1.98 0 3 0 C2.34 1.65 1.68 3.3 1 5 C0.34 5 -0.32 5 -1 5 C-1.33 5.99 -1.66 6.98 -2 8 C-2.66 7.67 -3.32 7.34 -4 7 C-2.68 4.69 -1.36 2.38 0 0 Z " fill="#74459E" transform="translate(354,23)"/>
<path d="M0 0 C0.625 1.875 0.625 1.875 1 4 C0.34 4.66 -0.32 5.32 -1 6 C-1.69748583 7.31747324 -2.36959957 8.64914193 -3 10 C-3.75 8.375 -3.75 8.375 -4 6 C-2.0625 2.75 -2.0625 2.75 0 0 Z " fill="#F5E6F9" transform="translate(362,36)"/>
<path d="M0 0 C0.66 0 1.32 0 2 0 C2.99 1.98 3.98 3.96 5 6 C4.01 6.495 4.01 6.495 3 7 C2.67 5.68 2.34 4.36 2 3 C1.01 3.33 0.02 3.66 -1 4 C-0.67 2.68 -0.34 1.36 0 0 Z " fill="#74439D" transform="translate(342,24)"/>
</svg>
